<?xml version="1.0" standalone="no"?>
<!DOCTYPE svg PUBLIC "-//W3C//DTD SVG 20010904//EN"
 "http://www.w3.org/TR/2001/REC-SVG-20010904/DTD/svg10.dtd">
<svg version="1.0" xmlns="http://www.w3.org/2000/svg"
 width="700.000000pt" height="700.000000pt" viewBox="0 0 700.000000 700.000000"
 preserveAspectRatio="xMidYMid meet">
<metadata>
Created by potrace 1.14, written by Peter Selinger 2001-2017
</metadata>
<g transform="translate(0.000000,700.000000) scale(0.100000,-0.100000)"
fill="#000000" stroke="none">
<path d="M2848 6415 c-2 -2 -23 -5 -48 -8 -284 -37 -537 -217 -663 -472 -74
-150 -93 -250 -95 -493 0 -101 -2 -186 -4 -188 -3 -2 -220 -4 -484 -5 -421 -1
-489 -3 -566 -19 -166 -35 -310 -112 -434 -235 -132 -129 -205 -266 -244 -454
-19 -93 -20 -140 -19 -1626 0 -1294 2 -1542 14 -1605 20 -101 40 -162 82 -245
130 -258 381 -436 669 -473 34 -5 1152 -8 2485 -7 l2424 2 92 26 c337 96 576
358 640 699 10 53 11 3123 1 3193 -45 317 -275 593 -581 695 -45 16 -98 32
-117 36 -19 4 -260 9 -535 11 -274 2 -500 5 -502 7 -1 1 -4 96 -7 212 -5 222
-13 279 -63 403 -75 189 -220 350 -400 444 -63 33 -162 73 -186 75 -9 1 -52
10 -87 19 -23 5 -1366 13 -1372 8z m1297 -589 c111 -28 197 -112 221 -216 9
-41 12 -336 4 -351 -4 -6 -334 -8 -876 -7 l-869 3 1 175 c1 153 3 181 21 221
45 101 134 166 242 178 79 9 1221 6 1256 -3z m-2105 -1180 c4 -170 0 -3468 -3
-3473 -5 -9 -886 -9 -927 0 -75 15 -165 80 -197 141 -39 75 -39 79 -38 1621
l1 1500 25 55 c29 61 57 95 106 129 66 45 92 47 576 47 455 0 457 0 457 -20z
m2335 -1728 c0 -1742 0 -1748 -20 -1749 -26 -1 -1673 -1 -1705 0 l-25 1 1
1743 c1 958 2 1744 3 1747 0 3 394 6 873 5 l873 0 0 -1747z m1540 1738 c94
-37 146 -84 183 -164 l26 -57 1 -1495 c1 -1085 -2 -1509 -10 -1546 -15 -64
-45 -114 -97 -158 -78 -67 -89 -69 -591 -70 -247 0 -453 2 -459 5 -7 4 -10
593 -9 1745 0 957 0 1742 0 1745 1 8 933 4 956 -5z"/>
</g>
</svg>
